<svg width="580" height="580" xmlns="http://www.w3.org/2000/svg">
 <!-- Created with Method Draw - http://github.com/duopixel/Method-Draw/ -->
 <g>
  <title>background</title>
  <rect fill-opacity="0" id="canvas_background" height="580" width="582" y="73" x="-49"/>
  <g display="none" id="canvasGrid">
   <rect fill="url(#gridpattern)" stroke-width="0" y="0" x="0" height="100%" width="100%" id="svg_1"/>
  </g>
 </g>
 <g>
  <title>Layer 1</title>
  <defs>
   <style>.cls-1{fill:#93ceaa;}.cls-2{fill:#4c9717;}.cls-3{fill:#5fbc21;}.cls-4{fill:#e8ceaa;opacity:0.6;}</style>
  </defs>
  <g stroke="null" id="svg_14">
   <g stroke="null" transform="matrix(1.2548518304646483,0,0,1.6570738170165817,-607.4857149588688,-611.674602715547) " id="svg_5">
    <g stroke="null" id="svg_6">
     <path stroke="null" id="svg_8" d="m780.976579,623.198968c0,2.5 0,5 0.05,7.5c0,0.54 0,1.07 -0.05,1.58l0,-9.08z" class="cls-1"/>
     <path stroke="null" id="svg_9" d="m867.896579,455.678968l0,85.2c-0.06,-27.24 -0.19,-54.49 -0.22,-81.73a29,29 0 0 1 0.22,-3.47z" class="cls-1"/>
     <path stroke="null" id="svg_10" d="m867.666579,543.428968a16.9,16.9 0 0 0 0.23,-2.55l0,79.66l-41.74,-38.17l-21,-19.15l-12.64,-11.62l-5.62,-5.13l-2.07,-1.89l-0.15,-0.13c-0.51,-0.41 -1,-0.84 -1.47,-1.23s-0.88,-0.73 -1.44,-0.56a1.25,1.25 0 0 0 -0.79,0.9l0,-75l0.43,0.39l8.57,7.75c4.51,4 9.06,8 13.56,12q9.6,8.6 19.14,17.3q7.55,6.86 15.08,13.74c6,5.47 11.92,11 17.92,16.43c2.7,2.44 5.42,4.83 8.15,7.23c0.58,0.51 1.15,1 1.74,1.52a1.47,1.47 0 0 0 1.4,0.18a1.16,1.16 0 0 0 0.56,-0.72c0.08,-0.38 0.08,-0.64 0.14,-0.95z" class="cls-2"/>
     <path stroke="null" id="svg_11" d="m780.886579,543.998968a15.67,15.67 0 0 0 -0.1,2.74c0,25.5 0,51 0.19,76.49l0,9.08a14.85,14.85 0 0 1 -5.87,11.09c-6.81,5.69 -13.16,11.91 -19.73,17.89c-2.75,2.5 -5.48,5 -8.31,7.44s-10.11,2.74 -14.14,-0.63a78.48,78.48 0 0 1 -8.54,-8.66a12.76,12.76 0 0 1 -3.73,-8.69c0,-0.72 -0.06,-1.51 0,-2.38c0,-1.5 0,-3 0.05,-4.51c0.05,-4.3 0,-8.61 0,-12.91l0,-140.24a12.64,12.64 0 0 1 0.38,-3.18a18.42,18.42 0 0 1 1,-2.64a22.16,22.16 0 0 1 2.02,-3.58l16,-16l10.19,-10.18a7.84,7.84 0 0 1 1.84,-1.38a8.05,8.05 0 0 1 3.21,-1l0,0a13.85,13.85 0 0 1 9.71,1.79l0,0a13.59,13.59 0 0 1 2.09,1.57l13.83,12.42l0,75a3.38,3.38 0 0 0 -0.09,0.47z" class="cls-3"/>
     <path stroke="null" id="svg_12" d="m780.886579,543.998968a3.38,3.38 0 0 1 0.09,-0.41l0,79.61c-0.15,-25.5 -0.14,-51 -0.19,-76.49a15.67,15.67 0 0 1 0.1,-2.71z" class="cls-4"/>
     <path stroke="null" id="svg_13" d="m926.196579,605.208968l-29.39,27a3.75,3.75 0 0 1 -0.36,0.24l-0.11,0.08l-0.2,0.12a14,14 0 0 1 -16.76,-1.65l-1.77,-1.55l-9.75,-8.91l0,-164.86c0.16,-1.39 0.4,-2.78 0.67,-4.14c0.7,-3.55 3.82,-5.31 6.2,-7.53c5.17,-4.8 10.5,-9.42 15.77,-14.12c3.63,-3.24 7.25,-6.49 10.91,-9.71c3.19,-2.81 9.37,-2.67 12.37,-0.93a10.11,10.11 0 0 1 2.08,1.61l3.38,3.26l2.73,2.61l2.49,2.41a11.45,11.45 0 0 1 1.78,2.09a11.73,11.73 0 0 1 1.7,6.46c-0.05,14.66 0.06,29.32 0.09,44q0.09,37.35 0.16,74.7q0,19.14 0.07,38.27c0,0.59 0,1.17 0,1.75c0.15,3.8 0.07,6.31 -2.06,8.8z" class="cls-3"/>
    </g>
   </g>
  </g>
  <g stroke="null" transform="matrix(-0.5551141770129785,-1.480772604070534,-1.0643347744090623,0.5151335085252511,570.9985659957924,1166.321972989058) " id="svg_22">
   <g stroke="null" id="svg_21">
    <path stroke="null" id="svg_15" d="m575.799025,158.382536c0,2.5 0,5 0.05,7.5c0,0.54 0,1.07 -0.05,1.58l0,-9.08z" class="cls-1"/>
    <path stroke="null" id="svg_16" d="m662.719025,-9.137464l0,85.2c-0.06,-27.24 -0.19,-54.49 -0.22,-81.73a29,29 0 0 1 0.22,-3.47z" class="cls-1"/>
    <path stroke="null" id="svg_17" d="m662.489025,78.612536a16.9,16.9 0 0 0 0.23,-2.55l0,79.66l-41.74,-38.17l-21,-19.15l-12.64,-11.62l-5.62,-5.13l-2.07,-1.89l-0.15,-0.13c-0.51,-0.41 -1,-0.84 -1.47,-1.23s-0.88,-0.73 -1.44,-0.56a1.25,1.25 0 0 0 -0.79,0.9l0,-75l0.43,0.39l8.57,7.75c4.51,4 9.06,8 13.56,12q9.6,8.6 19.14,17.3q7.55,6.86 15.08,13.74c6,5.47 11.92,11 17.92,16.43c2.7,2.44 5.42,4.83 8.15,7.23c0.58,0.51 1.15,1 1.74,1.52a1.47,1.47 0 0 0 1.4,0.18a1.16,1.16 0 0 0 0.56,-0.72c0.08,-0.38 0.08,-0.64 0.14,-0.95z" class="cls-2"/>
    <path stroke="null" id="svg_18" d="m575.709025,79.182536a15.67,15.67 0 0 0 -0.1,2.74c0,25.5 0,51 0.19,76.49l0,9.08a14.85,14.85 0 0 1 -5.87,11.09c-6.81,5.69 -13.16,11.91 -19.73,17.89c-2.75,2.5 -5.48,5 -8.31,7.44s-10.11,2.74 -14.14,-0.63a78.48,78.48 0 0 1 -8.54,-8.66a12.76,12.76 0 0 1 -3.73,-8.69c0,-0.72 -0.06,-1.51 0,-2.38c0,-1.5 0,-3 0.05,-4.51c0.05,-4.3 0,-8.61 0,-12.91l0,-140.24a12.64,12.64 0 0 1 0.38,-3.18a18.42,18.42 0 0 1 1,-2.64a22.16,22.16 0 0 1 2.02,-3.58l16,-16l10.19,-10.18a7.84,7.84 0 0 1 1.84,-1.38a8.05,8.05 0 0 1 3.21,-1l0,0a13.85,13.85 0 0 1 9.71,1.79l0,0a13.59,13.59 0 0 1 2.09,1.57l13.83,12.42l0,75a3.38,3.38 0 0 0 -0.09,0.47z" class="cls-3"/>
    <path stroke="null" id="svg_19" d="m575.709025,79.182536a3.38,3.38 0 0 1 0.09,-0.41l0,79.61c-0.15,-25.5 -0.14,-51 -0.19,-76.49a15.67,15.67 0 0 1 0.1,-2.71z" class="cls-4"/>
    <path stroke="null" id="svg_20" d="m721.019025,140.392536l-29.39,27a3.75,3.75 0 0 1 -0.36,0.24l-0.11,0.08l-0.2,0.12a14,14 0 0 1 -16.76,-1.65l-1.77,-1.55l-9.75,-8.91l0,-164.86c0.16,-1.39 0.4,-2.78 0.67,-4.14c0.7,-3.55 3.82,-5.31 6.2,-7.53c5.17,-4.8 10.5,-9.42 15.77,-14.12c3.63,-3.24 7.25,-6.49 10.91,-9.71c3.19,-2.81 9.37,-2.67 12.37,-0.93a10.11,10.11 0 0 1 2.08,1.61l3.38,3.26l2.73,2.61l2.49,2.41a11.45,11.45 0 0 1 1.78,2.09a11.73,11.73 0 0 1 1.7,6.46c-0.05,14.66 0.06,29.32 0.09,44q0.09,37.35 0.16,74.7q0,19.14 0.07,38.27c0,0.59 0,1.17 0,1.75c0.15,3.8 0.07,6.31 -2.06,8.8z" class="cls-3"/>
   </g>
  </g>
 </g>
</svg>